<?xml version="1.0" encoding="UTF-8" standalone="no"?>
<!-- Dark-mode variant: lighter fills, blend modes set to normal for black backgrounds -->

<svg
   width="118.84096mm"
   height="103.61602mm"
   viewBox="0 0 118.84096 103.61602"
   version="1.1"
   id="svg1"
   xmlns="http://www.w3.org/2000/svg"
   xmlns:svg="http://www.w3.org/2000/svg">
  <defs
     id="defs1" />
  <g
     id="layer1"
     transform="translate(-47.095833,-94.985417)">
    <g
       id="g1">
      <path
         style="mix-blend-mode:normal;fill:#a0a0a0;fill-opacity:1;stroke-width:0.245063;paint-order:normal"
         d="m 126.712,164.37222 4.92783,-8.74651 -0.016,0.0283 0.0319,-0.0566 -15.01472,-8.38479 z"
         id="path1-9-6-7" />
      <path
         style="mix-blend-mode:normal;fill:#a0a0a0;fill-opacity:1;stroke-width:0.245063;paint-order:normal"
         d="m 165.93679,95.113817 -5.06826,8.665903 0.0163,-0.0281 -0.0328,0.0561 -14.81193,-8.738013 z"
         id="path1-9-6-7-6" />
      <rect
         style="mix-blend-mode:normal;fill:#a0a0a0;fill-opacity:1;stroke-width:0.289593;paint-order:normal"
         id="rect1-9-17-0"
         width="17.109631"
         height="60.095608"
         x="174.03052"
         y="10.547824"
         ry="0.23352891"
         transform="matrix(0.87023853,0.49263059,-0.49333593,0.86983887,0,0)" />
      <path
         style="fill:#7c4dcc;fill-opacity:1;stroke-width:0.245063;paint-order:normal"
         d="m 47.095833,94.985417 5.046176,8.678803 -0.01633,-0.0281 0.03266,0.0563 14.834146,-8.700303 z"
         id="path1-6-8" />
      <rect
         style="fill:#7c4dcc;fill-opacity:1;stroke-width:0.37361;paint-order:normal"
         id="rect1-5"
         width="17.109612"
         height="100.02407"
         x="-7.5357022"
         y="115.79958"
         ry="0.38868919"
         transform="rotate(-30.38634)" />
      <path
         style="fill:#7c4dcc;fill-opacity:1;stroke-width:0.245063;paint-order:normal"
         d="m 107.82851,198.60144 -5.12075,-8.63501 0.0166,0.0281 -0.0332,-0.0559 14.82497,-8.71593 z"
         id="path1-9" />
      <rect
         style="mix-blend-mode:normal;fill:#1e3a5f;fill-opacity:1;stroke-width:0.264583;paint-order:normal"
         id="rect1-9-1"
         width="17.109612"
         height="50.163929"
         x="25.459871"
         y="145.85396"
         ry="0.19493484"
         transform="rotate(-30.645787)" />
      <path
         style="mix-blend-mode:normal;fill:#1e3a5f;fill-opacity:1;stroke-width:0.245063;paint-order:normal"
         d="m 126.70171,164.19729 -5.12072,-8.63501 0.0166,0.0281 -0.0332,-0.0559 14.82493,-8.71593 z"
         id="path1-9-6" />
      <path
         style="mix-blend-mode:normal;fill:#1e3a5f;fill-opacity:1;stroke-width:0.245063;paint-order:normal"
         d="m 105.82645,95.230297 5.16014,8.611523 -0.0167,-0.0279 0.0334,0.0557 -14.785003,8.78356 z"
         id="path1-2" />
    </g>
  </g>
</svg>
